<svg version="1.1" xmlns="http://www.w3.org/2000/svg" xmlns:xlink="http://www.w3.org/1999/xlink" width="399.72715" height="399.72715" viewBox="0,0,399.72715,399.72715"><g transform="translate(-39.79536,20.22169)"><g data-paper-data="{&quot;isPaintingLayer&quot;:true}" fill-rule="nonzero" stroke-miterlimit="10" stroke-dasharray="" stroke-dashoffset="0" style="mix-blend-mode: normal"><path d="M39.79536,379.50546v-399.72715h399.72715v399.72715z" fill="#40bdbb" stroke="#000000" stroke-width="0" stroke-linecap="butt" stroke-linejoin="miter"/><path d="M247.5,107.5l60,-60l65,65l-60,60" fill="none" stroke="#ffffff" stroke-width="20" stroke-linecap="butt" stroke-linejoin="round"/><path d="M115,205c0,-55.22847 44.77153,-100 100,-100c55.22848,0 100,44.77153 100,100c0,55.22847 -44.77152,100 -100,100c-55.22847,0 -100,-44.77153 -100,-100z" fill="none" stroke="#ffffff" stroke-width="20" stroke-linecap="butt" stroke-linejoin="miter"/><path d="M306.6187,51.60791l8.45056,112.11067" fill="none" stroke="#ffffff" stroke-width="20" stroke-linecap="round" stroke-linejoin="miter"/><path d="M149.92895,205c0,-35.93775 29.13331,-65.07105 65.07105,-65.07105c35.93775,0 65.07105,29.13331 65.07105,65.07105c0,35.93775 -29.13331,65.07105 -65.07105,65.07105c-35.93775,0 -65.07105,-29.13331 -65.07105,-65.07105z" fill="none" stroke="#ffffff" stroke-width="20" stroke-linecap="butt" stroke-linejoin="miter"/><path d="M187.67476,205c0,-15.09132 12.23393,-27.32524 27.32524,-27.32524c15.09132,0 27.32524,12.23393 27.32524,27.32524c0,15.09132 -12.23393,27.32524 -27.32524,27.32524c-15.09132,0 -27.32524,-12.23393 -27.32524,-27.32524z" fill="none" stroke="#ffffff" stroke-width="20" stroke-linecap="butt" stroke-linejoin="miter"/></g></g></svg>